<?xml version="1.0" standalone="no"?><!DOCTYPE svg PUBLIC "-//W3C//DTD SVG 1.1//EN" "http://www.w3.org/Graphics/SVG/1.1/DTD/svg11.dtd"><svg width="200" height="200" viewBox="0 0 200 200" version="1.1" xmlns="http://www.w3.org/2000/svg" xmlns:xlink="http://www.w3.org/1999/xlink"><defs><style type="text/css"><![CDATA[
@font-face { font-family: ifont; src: url(http://at.alicdn.com/t/font_1442373896_4754455.eot?#iefix) format(embedded-opentype), url(http://at.alicdn.com/t/font_1442373896_4754455.woff) format(woff), url(http://at.alicdn.com/t/font_1442373896_4754455.ttf) format(truetype), url(http://at.alicdn.com/t/font_1442373896_4754455.svg#ifont) format(svg); }

]]></style></defs><g class="transform-group"><g transform="scale(0.1953125, 0.1953125)"><path d="M678.136 179.474 320.158 179.474c-28.253 0-51.158 22.903-51.158 51.158l0 562.737L166.684 793.369 166.684 102.737l179.053 0 255.789 0 0-76.737L141.105 26c-28.255 0-51.158 22.903-51.158 51.158l0 741.789c0 28.255 22.903 51.158 51.158 51.158l127.895 0 0 76.737c0 28.255 22.905 51.158 51.158 51.158l562.737 0c28.252 0 51.158-22.903 51.158-51.158L934.053 435.268 678.136 179.474zM678.263 288.097l147.24 147.166-147.24 0L678.263 288.097zM857.316 921.263 345.737 921.263 345.737 870.105l0-76.737L345.737 256.211l255.789 0 0 204.632c0 28.255 22.905 51.158 51.158 51.158l204.632 0L857.316 921.263zM448.052 652.684c0 21.19 17.178 38.368 38.368 38.368l230.211 0c21.189 0 38.368-17.178 38.368-38.368s-17.18-38.368-38.368-38.368L486.421 614.316C465.23 614.316 448.052 631.494 448.052 652.684zM716.631 767.79 486.421 767.79c-21.19 0-38.368 17.178-38.368 38.368s17.178 38.368 38.368 38.368l230.211 0c21.189 0 38.368-17.178 38.368-38.368S737.82 767.79 716.631 767.79z" fill="#ffffff"></path></g></g></svg>