<?xml version="1.0" standalone="no"?><!DOCTYPE svg PUBLIC "-//W3C//DTD SVG 1.1//EN" "http://www.w3.org/Graphics/SVG/1.1/DTD/svg11.dtd"><svg width="200" height="200" viewBox="0 0 200 200" version="1.1" xmlns="http://www.w3.org/2000/svg" xmlns:xlink="http://www.w3.org/1999/xlink"><defs><style type="text/css"><![CDATA[
@font-face { font-family: ifont; src: url(http://at.alicdn.com/t/font_1442373896_4754455.eot?#iefix) format(embedded-opentype), url(http://at.alicdn.com/t/font_1442373896_4754455.woff) format(woff), url(http://at.alicdn.com/t/font_1442373896_4754455.ttf) format(truetype), url(http://at.alicdn.com/t/font_1442373896_4754455.svg#ifont) format(svg); }

]]></style></defs><g class="transform-group"><g transform="scale(0.1953125, 0.1953125)"><path d="M792.59 950.454c-9.045-25.461-33.107-43.788-61.653-43.788-28.551 0-52.613 18.329-61.653 43.788l-95.632 0c-9.04-25.461-33.102-43.788-61.653-43.788s-52.612 18.329-61.653 43.788l-95.632 0c-9.04-25.461-33.102-43.788-61.653-43.788s-52.608 18.329-61.652 43.788l-91.602 0 0-831.954c0-24.195 19.594-43.788 43.788-43.788l656.806 0c24.195 0 43.788 19.594 43.788 43.788l0 831.954-91.601 0zM249.275 753.411l197.044 0 0-372.191-197.044 0 0 372.191zM774.725 227.965l-525.451 0 0 65.683 525.451 0 0-65.683zM774.725 381.22l-240.831 0 0 65.681 240.831 0 0-65.681zM774.725 534.475l-240.831 0 0 65.681 240.831 0 0-65.681zM774.725 687.733l-240.831 0 0 65.678 240.831 0 0-65.679zM774.725 687.733z" fill="#ffffff"></path></g></g></svg>