<?xml version="1.0" standalone="no"?><!DOCTYPE svg PUBLIC "-//W3C//DTD SVG 1.1//EN" "http://www.w3.org/Graphics/SVG/1.1/DTD/svg11.dtd"><svg width="200" height="200" viewBox="0 0 200 200" version="1.1" xmlns="http://www.w3.org/2000/svg" xmlns:xlink="http://www.w3.org/1999/xlink"><defs><style type="text/css"><![CDATA[
@font-face { font-family: ifont; src: url(http://at.alicdn.com/t/font_1442373896_4754455.eot?#iefix) format(embedded-opentype), url(http://at.alicdn.com/t/font_1442373896_4754455.woff) format(woff), url(http://at.alicdn.com/t/font_1442373896_4754455.ttf) format(truetype), url(http://at.alicdn.com/t/font_1442373896_4754455.svg#ifont) format(svg); }

]]></style></defs><g class="transform-group"><g transform="scale(0.2, 0.2)"><path d="M833.1701 45.659H450.67137300676774c-10.6152 0-227.1176 0.6346-253.215 0.6346 0 0-40.1625-0.2268-40.1625 35.6868 0 24.8512-0.2349 251.0768-0.2349 261.5047v536.6301647483007c0 21.9181 17.7607 39.6661 39.6728 39.6661H305.095958970095l192.6235-0.4677 335.4507 0.4677c21.9151 0 39.6728-17.748 39.6728-39.6661V85.32814751598414C872.8429 63.413 855.0842 45.659 833.1701 45.659zM276.2393 880.7828H236.87934473674744V84.5306881934049h39.358967696544994V880.782829241774zM793.6952 524.0507l-79.1716-79.1623-79.4375 79.1623V85.59896390247411H793.6952098465376V524.050693629719z" fill="#ffffff"></path></g></g></svg>