<?xml version="1.0" standalone="no"?><!DOCTYPE svg PUBLIC "-//W3C//DTD SVG 1.1//EN" "http://www.w3.org/Graphics/SVG/1.1/DTD/svg11.dtd"><svg width="200" height="200" viewBox="0 0 200 200" version="1.1" xmlns="http://www.w3.org/2000/svg" xmlns:xlink="http://www.w3.org/1999/xlink"><defs><style type="text/css"><![CDATA[
@font-face { font-family: ifont; src: url(http://at.alicdn.com/t/font_1442373896_4754455.eot?#iefix) format(embedded-opentype), url(http://at.alicdn.com/t/font_1442373896_4754455.woff) format(woff), url(http://at.alicdn.com/t/font_1442373896_4754455.ttf) format(truetype), url(http://at.alicdn.com/t/font_1442373896_4754455.svg#ifont) format(svg); }

]]></style></defs><g class="transform-group"><g transform="scale(0.1953125, 0.1953125)"><path d="M806.549988 151.77462l-140.222388 311.335826L625.543755 463.110446l149.604587-329.781102-231.044627 0 0 770.42533c47.676889 1.85091 290.465221 80.610322 290.465221 80.610322l0 39.635004L181.708302 1024l0-42.124159c0 0 243.107455-78.121167 280.444777-78.121167L462.153079 133.393169 243.809524 133.393169l149.604587 329.781102-40.847669 0L212.344054 151.77462 71.994016 463.110446 31.210172 463.110446l150.49813-333.355273L181.708302 91.396659l2.552979 0 248.532536 0c0-50.293692 33.763151-91.396659 73.079033-91.396659 41.613563 0 73.079033 43.400648 73.079033 91.396659l255.680878 0 0 32.933433 153.051109 338.844179-40.911493 0L806.549988 151.77462zM395.967091 506.255797c0 100.076789-69.504862 191.21815-183.623037 191.21815-111.62902 0-183.623037-91.141361-183.623037-191.21815C28.657193 506.44727 395.967091 506.44727 395.967091 506.255797zM628.032909 506.255797c0 0.127649 367.246073 0.127649 367.246073 0 0 100.076789-69.441037 191.21815-183.623037 191.21815C700.09075 697.473947 628.032909 606.39641 628.032909 506.255797z" fill="#ffffff"></path></g></g></svg>